<?xml version="1.0" standalone="no"?>
<!DOCTYPE svg PUBLIC "-//W3C//DTD SVG 20010904//EN"
 "http://www.w3.org/TR/2001/REC-SVG-20010904/DTD/svg10.dtd">
<svg version="1.0" xmlns="http://www.w3.org/2000/svg"
 width="300.000000pt" height="130.000000pt" viewBox="0 0 300.000000 130.000000"
 preserveAspectRatio="xMidYMid meet">
<metadata>
Created by potrace 1.15, written by Peter Selinger 2001-2017
</metadata>
<g transform="translate(0.000000,130.000000) scale(0.100000,-0.100000)"
fill="#000000" stroke="none">
<path d="M0 650 l0 -650 1500 0 1500 0 0 650 0 650 -1500 0 -1500 0 0 -650z
m1525 340 c74 -36 147 -114 175 -185 33 -84 33 -225 1 -307 -29 -76 -106 -159
-179 -195 -57 -28 -58 -28 -287 -31 l-230 -3 30 24 30 25 0 332 0 332 -22 18
c-13 10 -23 20 -23 22 0 1 102 1 227 -2 216 -5 231 -7 278 -30z m728 2 c59
-37 87 -109 68 -179 -11 -39 -65 -100 -109 -122 -22 -12 -20 -14 38 -43 81
-40 113 -87 118 -172 5 -84 -25 -140 -93 -176 -48 -24 -55 -25 -292 -28 -171
-3 -243 -1 -243 7 0 6 4 11 9 11 5 0 17 7 25 16 14 13 16 59 16 350 0 323 -1
334 -20 346 -11 7 -20 15 -20 18 0 3 105 3 232 0 223 -5 235 -6 271 -28z m607
25 l36 -1 2 -66 c1 -55 0 -62 -11 -45 -43 68 -120 102 -208 92 -83 -10 -127
-50 -135 -124 -9 -76 33 -111 174 -148 130 -33 168 -58 207 -134 26 -51 18
-166 -14 -213 -68 -98 -228 -134 -414 -92 -51 12 -72 13 -75 5 -10 -29 -17 4
-14 65 4 67 4 68 17 37 8 -19 31 -42 62 -60 41 -24 59 -28 123 -28 93 0 135
21 168 85 17 33 22 56 19 88 -7 69 -40 95 -159 128 -116 31 -183 71 -215 129
-51 90 -12 214 82 262 56 29 80 33 200 27 66 -3 136 -6 155 -7z m-2502 -221
c69 -56 100 -76 122 -76 23 0 54 21 132 88 110 94 145 120 117 86 -167 -198
-179 -215 -179 -244 0 -27 70 -123 173 -237 39 -43 9 -23 -104 72 -84 71 -120
95 -141 95 -26 0 -68 -32 -240 -178 -36 -31 -16 -2 77 109 52 62 95 121 95
131 0 30 -17 56 -100 153 -83 98 -107 132 -69 99 13 -12 66 -55 117 -98z"/>
<path d="M1223 993 c-10 -4 -13 -81 -13 -339 l0 -334 26 -10 c58 -22 175 -5
236 35 57 38 99 132 105 237 12 202 -68 365 -196 397 -48 12 -143 20 -158 14z"/>
<path d="M1954 993 c-8 -5 -14 -114 -19 -340 l-7 -333 28 -11 c40 -15 162 -6
202 15 74 38 94 172 39 256 -28 41 -69 64 -148 82 l-54 11 38 9 c53 11 90 32
121 68 50 60 30 181 -39 226 -27 18 -143 30 -161 17z"/>
</g>
</svg>
